G04 #@! TF.GenerationSoftware,KiCad,Pcbnew,5.1.12-84ad8e8a86~92~ubuntu20.04.1*
G04 #@! TF.CreationDate,2022-11-16T18:52:32-05:00*
G04 #@! TF.ProjectId,unipak-extender,756e6970-616b-42d6-9578-74656e646572,v1.0*
G04 #@! TF.SameCoordinates,Original*
G04 #@! TF.FileFunction,Copper,L1,Top*
G04 #@! TF.FilePolarity,Positive*
%FSLAX46Y46*%
G04 Gerber Fmt 4.6, Leading zero omitted, Abs format (unit mm)*
G04 Created by KiCad (PCBNEW 5.1.12-84ad8e8a86~92~ubuntu20.04.1) date 2022-11-16 18:52:32*
%MOMM*%
%LPD*%
G01*
G04 APERTURE LIST*
G04 #@! TA.AperFunction,SMDPad,CuDef*
%ADD10R,2.350000X8.000000*%
G04 #@! TD*
G04 #@! TA.AperFunction,Conductor*
%ADD11C,2.000000*%
G04 #@! TD*
G04 APERTURE END LIST*
D10*
X280520000Y-47294000D03*
X284480000Y-47294000D03*
X256760000Y-47294000D03*
X264680000Y-47294000D03*
X276560000Y-47294000D03*
X272600000Y-47294000D03*
X268640000Y-47294000D03*
X260720000Y-47294000D03*
X169640000Y-47294000D03*
X145880000Y-47294000D03*
X149840000Y-47294000D03*
X153800000Y-47294000D03*
X157760000Y-47294000D03*
X161720000Y-47294000D03*
X165680000Y-47294000D03*
X173600000Y-47294000D03*
X177560000Y-47294000D03*
X181520000Y-47294000D03*
X185480000Y-47294000D03*
X189440000Y-47294000D03*
X193400000Y-47294000D03*
X197360000Y-47294000D03*
X201320000Y-47294000D03*
X205280000Y-47294000D03*
X209240000Y-47294000D03*
X213200000Y-47294000D03*
X217160000Y-47294000D03*
X221120000Y-47294000D03*
X225080000Y-47294000D03*
X229040000Y-47294000D03*
X233000000Y-47294000D03*
X236960000Y-47294000D03*
X240920000Y-47294000D03*
X244880000Y-47294000D03*
X248840000Y-47294000D03*
X252800000Y-47294000D03*
X149840000Y-198882000D03*
X145880000Y-198882000D03*
X173600000Y-198882000D03*
X165680000Y-198882000D03*
X153800000Y-198882000D03*
X157760000Y-198882000D03*
X161720000Y-198882000D03*
X169640000Y-198882000D03*
X260720000Y-198882000D03*
X284480000Y-198882000D03*
X280520000Y-198882000D03*
X276560000Y-198882000D03*
X272600000Y-198882000D03*
X268640000Y-198882000D03*
X264680000Y-198882000D03*
X256760000Y-198882000D03*
X252800000Y-198882000D03*
X248840000Y-198882000D03*
X244880000Y-198882000D03*
X240920000Y-198882000D03*
X236960000Y-198882000D03*
X233000000Y-198882000D03*
X229040000Y-198882000D03*
X225080000Y-198882000D03*
X221120000Y-198882000D03*
X217160000Y-198882000D03*
X213200000Y-198882000D03*
X209240000Y-198882000D03*
X205280000Y-198882000D03*
X201320000Y-198882000D03*
X197360000Y-198882000D03*
X193400000Y-198882000D03*
X189440000Y-198882000D03*
X185480000Y-198882000D03*
X181520000Y-198882000D03*
X177560000Y-198882000D03*
D11*
X145880000Y-47294000D02*
X145880000Y-198882000D01*
X149840000Y-47294000D02*
X149840000Y-198882000D01*
X153800000Y-198882000D02*
X153800000Y-47294000D01*
X157760000Y-47294000D02*
X157760000Y-198882000D01*
X161720000Y-47294000D02*
X161720000Y-198882000D01*
X165680000Y-47294000D02*
X165680000Y-198882000D01*
X169640000Y-47294000D02*
X169640000Y-198882000D01*
X173600000Y-47294000D02*
X173600000Y-198882000D01*
X177560000Y-47294000D02*
X177560000Y-198882000D01*
X181520000Y-192882000D02*
X181520000Y-47294000D01*
X181520000Y-198882000D02*
X181520000Y-192882000D01*
X185480000Y-47294000D02*
X185480000Y-198882000D01*
X189440000Y-47294000D02*
X189440000Y-198882000D01*
X193400000Y-47294000D02*
X193400000Y-198882000D01*
X197360000Y-47294000D02*
X197360000Y-198882000D01*
X201320000Y-47294000D02*
X201320000Y-198882000D01*
X205280000Y-47294000D02*
X205280000Y-198882000D01*
X209240000Y-47294000D02*
X209240000Y-198882000D01*
X213200000Y-47294000D02*
X213200000Y-198882000D01*
X217160000Y-198882000D02*
X217160000Y-47294000D01*
X221120000Y-47294000D02*
X221120000Y-198882000D01*
X225080000Y-198882000D02*
X225080000Y-47294000D01*
X229040000Y-47294000D02*
X229040000Y-198882000D01*
X233000000Y-198882000D02*
X233000000Y-47294000D01*
X236960000Y-47294000D02*
X236960000Y-198882000D01*
X240920000Y-198882000D02*
X240920000Y-47294000D01*
X244880000Y-47294000D02*
X244880000Y-198882000D01*
X248840000Y-198882000D02*
X248840000Y-47294000D01*
X252800000Y-47294000D02*
X252800000Y-198882000D01*
X256760000Y-198882000D02*
X256760000Y-47294000D01*
X260720000Y-47294000D02*
X260720000Y-198882000D01*
X264680000Y-198882000D02*
X264680000Y-47294000D01*
X268640000Y-47294000D02*
X268640000Y-198882000D01*
X272600000Y-198882000D02*
X272600000Y-47294000D01*
X276560000Y-47294000D02*
X276560000Y-198882000D01*
X280520000Y-198882000D02*
X280520000Y-47294000D01*
X284480000Y-47294000D02*
X284480000Y-198882000D01*
M02*
