G04 #@! TF.GenerationSoftware,KiCad,Pcbnew,5.1.12-84ad8e8a86~92~ubuntu20.04.1*
G04 #@! TF.CreationDate,2022-11-16T18:52:32-05:00*
G04 #@! TF.ProjectId,unipak-extender,756e6970-616b-42d6-9578-74656e646572,v1.0*
G04 #@! TF.SameCoordinates,Original*
G04 #@! TF.FileFunction,Legend,Top*
G04 #@! TF.FilePolarity,Positive*
%FSLAX46Y46*%
G04 Gerber Fmt 4.6, Leading zero omitted, Abs format (unit mm)*
G04 Created by KiCad (PCBNEW 5.1.12-84ad8e8a86~92~ubuntu20.04.1) date 2022-11-16 18:52:32*
%MOMM*%
%LPD*%
G01*
G04 APERTURE LIST*
%ADD10C,0.150000*%
%ADD11R,2.350000X8.000000*%
G04 APERTURE END LIST*
D10*
X145415047Y-192674761D02*
X144748380Y-191722380D01*
X144272190Y-192674761D02*
X144272190Y-190674761D01*
X145034095Y-190674761D01*
X145224571Y-190770000D01*
X145319809Y-190865238D01*
X145415047Y-191055714D01*
X145415047Y-191341428D01*
X145319809Y-191531904D01*
X145224571Y-191627142D01*
X145034095Y-191722380D01*
X144272190Y-191722380D01*
X147415047Y-192674761D02*
X146748380Y-191722380D01*
X146272190Y-192674761D02*
X146272190Y-190674761D01*
X147034095Y-190674761D01*
X147224571Y-190770000D01*
X147319809Y-190865238D01*
X147415047Y-191055714D01*
X147415047Y-191341428D01*
X147319809Y-191531904D01*
X147224571Y-191627142D01*
X147034095Y-191722380D01*
X146272190Y-191722380D01*
X284003809Y-192103333D02*
X284956190Y-192103333D01*
X283813333Y-192674761D02*
X284480000Y-190674761D01*
X285146666Y-192674761D01*
X283749809Y-55197333D02*
X284702190Y-55197333D01*
X283559333Y-55768761D02*
X284226000Y-53768761D01*
X284892666Y-55768761D01*
X145415047Y-55514761D02*
X144748380Y-54562380D01*
X144272190Y-55514761D02*
X144272190Y-53514761D01*
X145034095Y-53514761D01*
X145224571Y-53610000D01*
X145319809Y-53705238D01*
X145415047Y-53895714D01*
X145415047Y-54181428D01*
X145319809Y-54371904D01*
X145224571Y-54467142D01*
X145034095Y-54562380D01*
X144272190Y-54562380D01*
X147415047Y-55514761D02*
X146748380Y-54562380D01*
X146272190Y-55514761D02*
X146272190Y-53514761D01*
X147034095Y-53514761D01*
X147224571Y-53610000D01*
X147319809Y-53705238D01*
X147415047Y-53895714D01*
X147415047Y-54181428D01*
X147319809Y-54371904D01*
X147224571Y-54467142D01*
X147034095Y-54562380D01*
X146272190Y-54562380D01*
X291734761Y-60689428D02*
X289734761Y-60689428D01*
X291163333Y-60022761D01*
X289734761Y-59356095D01*
X291734761Y-59356095D01*
X291734761Y-58403714D02*
X289734761Y-58403714D01*
X289734761Y-57927523D01*
X289830000Y-57641809D01*
X290020476Y-57451333D01*
X290210952Y-57356095D01*
X290591904Y-57260857D01*
X290877619Y-57260857D01*
X291258571Y-57356095D01*
X291449047Y-57451333D01*
X291639523Y-57641809D01*
X291734761Y-57927523D01*
X291734761Y-58403714D01*
X290401428Y-55070380D02*
X291734761Y-54594190D01*
X290401428Y-54118000D01*
X291734761Y-52308476D02*
X291734761Y-53451333D01*
X291734761Y-52879904D02*
X289734761Y-52879904D01*
X290020476Y-53070380D01*
X290210952Y-53260857D01*
X290306190Y-53451333D01*
X291544285Y-51451333D02*
X291639523Y-51356095D01*
X291734761Y-51451333D01*
X291639523Y-51546571D01*
X291544285Y-51451333D01*
X291734761Y-51451333D01*
X289734761Y-50118000D02*
X289734761Y-49927523D01*
X289830000Y-49737047D01*
X289925238Y-49641809D01*
X290115714Y-49546571D01*
X290496666Y-49451333D01*
X290972857Y-49451333D01*
X291353809Y-49546571D01*
X291544285Y-49641809D01*
X291639523Y-49737047D01*
X291734761Y-49927523D01*
X291734761Y-50118000D01*
X291639523Y-50308476D01*
X291544285Y-50403714D01*
X291353809Y-50498952D01*
X290972857Y-50594190D01*
X290496666Y-50594190D01*
X290115714Y-50498952D01*
X289925238Y-50403714D01*
X289830000Y-50308476D01*
X289734761Y-50118000D01*
X288131523Y-161983333D02*
X291369619Y-161983333D01*
X291750571Y-161792857D01*
X291941047Y-161602380D01*
X292131523Y-161221428D01*
X292131523Y-160459523D01*
X291941047Y-160078571D01*
X291750571Y-159888095D01*
X291369619Y-159697619D01*
X288131523Y-159697619D01*
X289464857Y-157792857D02*
X292131523Y-157792857D01*
X289845809Y-157792857D02*
X289655333Y-157602380D01*
X289464857Y-157221428D01*
X289464857Y-156650000D01*
X289655333Y-156269047D01*
X290036285Y-156078571D01*
X292131523Y-156078571D01*
X292131523Y-154173809D02*
X289464857Y-154173809D01*
X288131523Y-154173809D02*
X288322000Y-154364285D01*
X288512476Y-154173809D01*
X288322000Y-153983333D01*
X288131523Y-154173809D01*
X288512476Y-154173809D01*
X289464857Y-152269047D02*
X293464857Y-152269047D01*
X289655333Y-152269047D02*
X289464857Y-151888095D01*
X289464857Y-151126190D01*
X289655333Y-150745238D01*
X289845809Y-150554761D01*
X290226761Y-150364285D01*
X291369619Y-150364285D01*
X291750571Y-150554761D01*
X291941047Y-150745238D01*
X292131523Y-151126190D01*
X292131523Y-151888095D01*
X291941047Y-152269047D01*
X292131523Y-146935714D02*
X290036285Y-146935714D01*
X289655333Y-147126190D01*
X289464857Y-147507142D01*
X289464857Y-148269047D01*
X289655333Y-148650000D01*
X291941047Y-146935714D02*
X292131523Y-147316666D01*
X292131523Y-148269047D01*
X291941047Y-148650000D01*
X291560095Y-148840476D01*
X291179142Y-148840476D01*
X290798190Y-148650000D01*
X290607714Y-148269047D01*
X290607714Y-147316666D01*
X290417238Y-146935714D01*
X292131523Y-145030952D02*
X288131523Y-145030952D01*
X290607714Y-144650000D02*
X292131523Y-143507142D01*
X289464857Y-143507142D02*
X290988666Y-145030952D01*
X288512476Y-138935714D02*
X288322000Y-138745238D01*
X288131523Y-138364285D01*
X288131523Y-137411904D01*
X288322000Y-137030952D01*
X288512476Y-136840476D01*
X288893428Y-136650000D01*
X289274380Y-136650000D01*
X289845809Y-136840476D01*
X292131523Y-139126190D01*
X292131523Y-136650000D01*
X287941047Y-132078571D02*
X293083904Y-135507142D01*
X288512476Y-130935714D02*
X288322000Y-130745238D01*
X288131523Y-130364285D01*
X288131523Y-129411904D01*
X288322000Y-129030952D01*
X288512476Y-128840476D01*
X288893428Y-128650000D01*
X289274380Y-128650000D01*
X289845809Y-128840476D01*
X292131523Y-131126190D01*
X292131523Y-128650000D01*
X290036285Y-125602380D02*
X290226761Y-125030952D01*
X290417238Y-124840476D01*
X290798190Y-124650000D01*
X291369619Y-124650000D01*
X291750571Y-124840476D01*
X291941047Y-125030952D01*
X292131523Y-125411904D01*
X292131523Y-126935714D01*
X288131523Y-126935714D01*
X288131523Y-125602380D01*
X288322000Y-125221428D01*
X288512476Y-125030952D01*
X288893428Y-124840476D01*
X289274380Y-124840476D01*
X289655333Y-125030952D01*
X289845809Y-125221428D01*
X290036285Y-125602380D01*
X290036285Y-126935714D01*
X290036285Y-119888095D02*
X290036285Y-118554761D01*
X292131523Y-117983333D02*
X292131523Y-119888095D01*
X288131523Y-119888095D01*
X288131523Y-117983333D01*
X292131523Y-116650000D02*
X289464857Y-114554761D01*
X289464857Y-116650000D02*
X292131523Y-114554761D01*
X289464857Y-113602380D02*
X289464857Y-112078571D01*
X288131523Y-113030952D02*
X291560095Y-113030952D01*
X291941047Y-112840476D01*
X292131523Y-112459523D01*
X292131523Y-112078571D01*
X291941047Y-109221428D02*
X292131523Y-109602380D01*
X292131523Y-110364285D01*
X291941047Y-110745238D01*
X291560095Y-110935714D01*
X290036285Y-110935714D01*
X289655333Y-110745238D01*
X289464857Y-110364285D01*
X289464857Y-109602380D01*
X289655333Y-109221428D01*
X290036285Y-109030952D01*
X290417238Y-109030952D01*
X290798190Y-110935714D01*
X289464857Y-107316666D02*
X292131523Y-107316666D01*
X289845809Y-107316666D02*
X289655333Y-107126190D01*
X289464857Y-106745238D01*
X289464857Y-106173809D01*
X289655333Y-105792857D01*
X290036285Y-105602380D01*
X292131523Y-105602380D01*
X292131523Y-101983333D02*
X288131523Y-101983333D01*
X291941047Y-101983333D02*
X292131523Y-102364285D01*
X292131523Y-103126190D01*
X291941047Y-103507142D01*
X291750571Y-103697619D01*
X291369619Y-103888095D01*
X290226761Y-103888095D01*
X289845809Y-103697619D01*
X289655333Y-103507142D01*
X289464857Y-103126190D01*
X289464857Y-102364285D01*
X289655333Y-101983333D01*
X291941047Y-98554761D02*
X292131523Y-98935714D01*
X292131523Y-99697619D01*
X291941047Y-100078571D01*
X291560095Y-100269047D01*
X290036285Y-100269047D01*
X289655333Y-100078571D01*
X289464857Y-99697619D01*
X289464857Y-98935714D01*
X289655333Y-98554761D01*
X290036285Y-98364285D01*
X290417238Y-98364285D01*
X290798190Y-100269047D01*
X292131523Y-96650000D02*
X289464857Y-96650000D01*
X290226761Y-96650000D02*
X289845809Y-96459523D01*
X289655333Y-96269047D01*
X289464857Y-95888095D01*
X289464857Y-95507142D01*
X291750571Y-88840476D02*
X291941047Y-89030952D01*
X292131523Y-89602380D01*
X292131523Y-89983333D01*
X291941047Y-90554761D01*
X291560095Y-90935714D01*
X291179142Y-91126190D01*
X290417238Y-91316666D01*
X289845809Y-91316666D01*
X289083904Y-91126190D01*
X288702952Y-90935714D01*
X288322000Y-90554761D01*
X288131523Y-89983333D01*
X288131523Y-89602380D01*
X288322000Y-89030952D01*
X288512476Y-88840476D01*
X292131523Y-85411904D02*
X290036285Y-85411904D01*
X289655333Y-85602380D01*
X289464857Y-85983333D01*
X289464857Y-86745238D01*
X289655333Y-87126190D01*
X291941047Y-85411904D02*
X292131523Y-85792857D01*
X292131523Y-86745238D01*
X291941047Y-87126190D01*
X291560095Y-87316666D01*
X291179142Y-87316666D01*
X290798190Y-87126190D01*
X290607714Y-86745238D01*
X290607714Y-85792857D01*
X290417238Y-85411904D01*
X292131523Y-83507142D02*
X289464857Y-83507142D01*
X290226761Y-83507142D02*
X289845809Y-83316666D01*
X289655333Y-83126190D01*
X289464857Y-82745238D01*
X289464857Y-82364285D01*
X292131523Y-79316666D02*
X288131523Y-79316666D01*
X291941047Y-79316666D02*
X292131523Y-79697619D01*
X292131523Y-80459523D01*
X291941047Y-80840476D01*
X291750571Y-81030952D01*
X291369619Y-81221428D01*
X290226761Y-81221428D01*
X289845809Y-81030952D01*
X289655333Y-80840476D01*
X289464857Y-80459523D01*
X289464857Y-79697619D01*
X289655333Y-79316666D01*
%LPC*%
D11*
X280520000Y-47294000D03*
X284480000Y-47294000D03*
X256760000Y-47294000D03*
X264680000Y-47294000D03*
X276560000Y-47294000D03*
X272600000Y-47294000D03*
X268640000Y-47294000D03*
X260720000Y-47294000D03*
X169640000Y-47294000D03*
X145880000Y-47294000D03*
X149840000Y-47294000D03*
X153800000Y-47294000D03*
X157760000Y-47294000D03*
X161720000Y-47294000D03*
X165680000Y-47294000D03*
X173600000Y-47294000D03*
X177560000Y-47294000D03*
X181520000Y-47294000D03*
X185480000Y-47294000D03*
X189440000Y-47294000D03*
X193400000Y-47294000D03*
X197360000Y-47294000D03*
X201320000Y-47294000D03*
X205280000Y-47294000D03*
X209240000Y-47294000D03*
X213200000Y-47294000D03*
X217160000Y-47294000D03*
X221120000Y-47294000D03*
X225080000Y-47294000D03*
X229040000Y-47294000D03*
X233000000Y-47294000D03*
X236960000Y-47294000D03*
X240920000Y-47294000D03*
X244880000Y-47294000D03*
X248840000Y-47294000D03*
X252800000Y-47294000D03*
X149840000Y-198882000D03*
X145880000Y-198882000D03*
X173600000Y-198882000D03*
X165680000Y-198882000D03*
X153800000Y-198882000D03*
X157760000Y-198882000D03*
X161720000Y-198882000D03*
X169640000Y-198882000D03*
X260720000Y-198882000D03*
X284480000Y-198882000D03*
X280520000Y-198882000D03*
X276560000Y-198882000D03*
X272600000Y-198882000D03*
X268640000Y-198882000D03*
X264680000Y-198882000D03*
X256760000Y-198882000D03*
X252800000Y-198882000D03*
X248840000Y-198882000D03*
X244880000Y-198882000D03*
X240920000Y-198882000D03*
X236960000Y-198882000D03*
X233000000Y-198882000D03*
X229040000Y-198882000D03*
X225080000Y-198882000D03*
X221120000Y-198882000D03*
X217160000Y-198882000D03*
X213200000Y-198882000D03*
X209240000Y-198882000D03*
X205280000Y-198882000D03*
X201320000Y-198882000D03*
X197360000Y-198882000D03*
X193400000Y-198882000D03*
X189440000Y-198882000D03*
X185480000Y-198882000D03*
X181520000Y-198882000D03*
X177560000Y-198882000D03*
M02*
