%FSLAX45Y45*%
G04 Gerber Fmt 4.5, Leading zero omitted, Abs format (unit mm)*
G04 Created by KiCad (PCBNEW 5.1.12-84ad8e8a86~92~ubuntu20.04.1) date 2022-11-16 18:52:56*
%MOMM*%
%LPD*%
G01*
G04 APERTURE LIST*
%TA.AperFunction,Profile*%
%ADD10C,0.050000*%
%TD*%
%ADD11C,0.200000*%
%ADD12C,0.300000*%
G04 APERTURE END LIST*
D10*
X28800000Y-19400000D02*
X29500000Y-19400000D01*
X28800000Y-20300000D02*
X28800000Y-19400000D01*
X29500000Y-4300000D02*
X29500000Y-19400000D01*
X14000000Y-4300000D02*
X29500000Y-4300000D01*
X14000000Y-19400000D02*
X14000000Y-4300000D01*
X14225000Y-19400000D02*
X14000000Y-19400000D01*
X14225000Y-20300000D02*
X14225000Y-19400000D01*
X28800000Y-20300000D02*
X14225000Y-20300000D01*
D11*
D12*
X14283928Y-20768214D02*
X14283928Y-20468214D01*
X14355357Y-20468214D01*
X14398214Y-20482500D01*
X14426786Y-20511072D01*
X14441071Y-20539643D01*
X14455357Y-20596786D01*
X14455357Y-20639643D01*
X14441071Y-20696786D01*
X14426786Y-20725357D01*
X14398214Y-20753929D01*
X14355357Y-20768214D01*
X14283928Y-20768214D01*
X14583928Y-20768214D02*
X14583928Y-20568214D01*
X14583928Y-20625357D02*
X14598214Y-20596786D01*
X14612500Y-20582500D01*
X14641071Y-20568214D01*
X14669643Y-20568214D01*
X14769643Y-20768214D02*
X14769643Y-20568214D01*
X14769643Y-20468214D02*
X14755357Y-20482500D01*
X14769643Y-20496786D01*
X14783928Y-20482500D01*
X14769643Y-20468214D01*
X14769643Y-20496786D01*
X14955357Y-20768214D02*
X14926786Y-20753929D01*
X14912500Y-20725357D01*
X14912500Y-20468214D01*
X15112500Y-20768214D02*
X15083928Y-20753929D01*
X15069643Y-20725357D01*
X15069643Y-20468214D01*
X15455357Y-20768214D02*
X15455357Y-20468214D01*
X15555357Y-20682500D01*
X15655357Y-20468214D01*
X15655357Y-20768214D01*
X15926786Y-20768214D02*
X15926786Y-20611072D01*
X15912500Y-20582500D01*
X15883928Y-20568214D01*
X15826786Y-20568214D01*
X15798214Y-20582500D01*
X15926786Y-20753929D02*
X15898214Y-20768214D01*
X15826786Y-20768214D01*
X15798214Y-20753929D01*
X15783928Y-20725357D01*
X15783928Y-20696786D01*
X15798214Y-20668214D01*
X15826786Y-20653929D01*
X15898214Y-20653929D01*
X15926786Y-20639643D01*
X16069643Y-20568214D02*
X16069643Y-20868214D01*
X16069643Y-20582500D02*
X16098214Y-20568214D01*
X16155357Y-20568214D01*
X16183928Y-20582500D01*
X16198214Y-20596786D01*
X16212500Y-20625357D01*
X16212500Y-20711072D01*
X16198214Y-20739643D01*
X16183928Y-20753929D01*
X16155357Y-20768214D01*
X16098214Y-20768214D01*
X16069643Y-20753929D01*
X16341071Y-20739643D02*
X16355357Y-20753929D01*
X16341071Y-20768214D01*
X16326786Y-20753929D01*
X16341071Y-20739643D01*
X16341071Y-20768214D01*
X16341071Y-20582500D02*
X16355357Y-20596786D01*
X16341071Y-20611072D01*
X16326786Y-20596786D01*
X16341071Y-20582500D01*
X16341071Y-20611072D01*
M02*
